<svg xmlns="http://www.w3.org/2000/svg" xmlns:xlink="http://www.w3.org/1999/xlink" width="2500" zoomAndPan="magnify" viewBox="0 0 1874.88 562.499983" height="750" preserveAspectRatio="xMidYMid meet" version="1.0"><defs><g/><clipPath id="4a2e8be088"><path d="M 58 16.960938 L 592 16.960938 L 592 548.238281 L 58 548.238281 Z M 58 16.960938 " clip-rule="nonzero"/></clipPath></defs><g clip-path="url(#4a2e8be088)"><path fill="#ffffff" d="M 492.953125 310.382812 C 458.976562 331.054688 400.597656 347.722656 333.328125 353.570312 C 239.683594 361.71875 158.742188 338.925781 136.550781 314.984375 C 112.378906 288.925781 151.789062 261.625 174.902344 257.34375 C 160.398438 264.9375 128.03125 288.464844 161.089844 308.21875 C 189.910156 325.390625 255.566406 333.585938 330.75 327.003906 C 396.542969 321.292969 454.003906 306.929688 483.378906 287.269531 C 554.375 239.664062 424.859375 211.210938 374.351562 223.503906 C 412.105469 206.695312 492.035156 206.144531 526.242188 239.523438 C 550.691406 263.375 522.835938 292.195312 492.953125 310.335938 Z M 292.214844 188.097656 C 280.703125 199.46875 272.601562 212.589844 271.910156 229.121094 C 269.195312 292.105469 343.917969 299.746094 390.972656 296.753906 C 407.179688 294.128906 422.050781 291.136719 434.4375 287.914062 C 443.78125 285.472656 464.960938 279.210938 471.960938 268.347656 C 462.890625 274.007812 450.414062 278.75 436.785156 281.929688 C 418 286.347656 397.144531 288.925781 379.371094 287.222656 C 307.730469 280.363281 340.328125 215.90625 381.996094 191.871094 C 392.816406 185.609375 404.464844 180.777344 415.421875 177.183594 L 423.847656 174.421875 C 439.546875 169.3125 457.964844 163.371094 475.042969 155.40625 C 520.441406 134.320312 535.359375 104.117188 536.878906 77.136719 C 537.476562 67.054688 534.804688 56.925781 531.308594 49.144531 C 512.753906 18.894531 487.523438 29.4375 482.089844 30.496094 C 505.523438 -0.394531 550.230469 26.308594 554.375 63.1875 C 558.5625 100.710938 528.773438 139.476562 478.820312 163.464844 C 461.1875 171.613281 442.539062 177.691406 426.5625 182.847656 L 418.183594 185.609375 C 411.507812 187.820312 404.554688 190.492188 397.742188 193.667969 C 366.296875 208.308594 323.0625 267.933594 378.035156 276.632812 C 394.933594 279.304688 416.066406 277.691406 434.757812 273.273438 C 534.160156 249.835938 410.449219 224.285156 379.09375 245.96875 C 367.445312 254.027344 385.449219 264.710938 410.632812 258.492188 C 403.035156 266.042969 374.8125 268.714844 367.355469 258.261719 C 362.933594 252.09375 367.816406 243.53125 378.3125 238.417969 C 397.1875 229.164062 431.996094 228.933594 456.675781 234.089844 C 467.492188 236.347656 487.753906 243.714844 491.160156 255.824219 C 497.238281 277.417969 463.121094 291.136719 442.402344 297.398438 C 379.785156 316.273438 246.542969 329.257812 186.503906 311.027344 C 168.273438 305.5 144.605469 289.25 168.777344 272.445312 C 187.011719 259.78125 224.351562 252.371094 245.113281 258.953125 C 277.296875 269.175781 252.390625 284.644531 230.75 288.050781 C 217.90625 290.078125 202.757812 288.558594 194.054688 283.355469 C 200.226562 284.875 228.355469 284.136719 240.601562 278.0625 C 243.320312 276.726562 246.035156 275.023438 246.632812 273.132812 C 249.855469 262.636719 201.285156 264.894531 184.847656 276.585938 C 168.179688 288.421875 189.726562 297.765625 204.046875 301.402344 C 229.046875 307.710938 272.417969 308.265625 317.03125 305.179688 C 276.054688 293.394531 245.113281 248.320312 256.949219 207.988281 C 272.648438 154.578125 318.503906 150.34375 364.546875 137.726562 C 388.71875 131.097656 425.550781 117.054688 419.839844 91.132812 C 417.402344 79.945312 405.707031 74.050781 393.503906 83.765625 C 389.222656 87.21875 386.875 96.246094 394.289062 95.277344 C 401.242188 94.355469 402.4375 105.683594 393.964844 106.417969 C 385.082031 107.203125 381.902344 95.046875 383.191406 88.738281 C 384.621094 81.742188 390.699219 75.800781 397.789062 73.269531 C 412.890625 67.882812 428.222656 79.484375 430.707031 94.496094 C 433.285156 110.058594 422.234375 123.085938 409.851562 131.558594 C 373.800781 156.234375 330.292969 150.574219 292.261719 188.1875 Z M 399.722656 497.078125 C 421.039062 502.835938 469.65625 507.804688 498.480469 493.441406 C 540.238281 472.632812 516.066406 424.195312 476.289062 424.105469 C 504.050781 414.203125 539.824219 433.082031 542.402344 463.148438 C 544.015625 481.609375 530.9375 496.617188 513.441406 505.273438 C 483.195312 520.285156 426.472656 515.265625 399.722656 497.078125 Z M 114.589844 542.84375 C 114.589844 542.84375 149.578125 456.195312 250.132812 455.871094 C 271.820312 455.78125 295.851562 463.191406 320.4375 473.507812 C 352.757812 477.648438 389.777344 478.203125 411.230469 453.890625 C 396.128906 453.570312 369.792969 452.1875 349.949219 446.664062 C 349.949219 446.664062 409.804688 439.804688 425.78125 430.824219 L 430.570312 422.398438 C 415.144531 422.90625 390.007812 421.25 372.1875 414.203125 C 372.1875 414.203125 429.003906 412.730469 445.117188 396.894531 L 451.378906 385.890625 C 419.058594 390.355469 385.957031 386.074219 383.699219 382.574219 C 446.453125 380.179688 468.554688 355.734375 468.554688 355.734375 L 471.175781 351.082031 C 418.550781 363.375 367.953125 358.816406 367.953125 358.816406 C 407.960938 352.96875 490.652344 336.027344 529.003906 293.4375 C 529.464844 292.933594 530.203125 292.839844 530.753906 293.253906 C 531.308594 293.621094 531.492188 294.359375 531.167969 294.910156 L 446.820312 459.601562 C 438.351562 476.175781 423.15625 486.398438 404.601562 488.007812 L 360.355469 491.875 L 370.070312 496.617188 C 413.121094 517.75 478.128906 548.230469 524.585938 526.316406 C 552.855469 512.964844 565.699219 487.59375 560.910156 459.832031 C 553.867188 419.269531 517.355469 402.878906 478.867188 412.59375 C 513.8125 386.625 580.847656 402.554688 590.652344 455.273438 C 598.160156 495.699219 569.660156 524.472656 536.464844 538.652344 C 487.566406 559.558594 425.550781 543.351562 376.054688 524.933594 C 297.09375 495.558594 240.144531 494.316406 160.167969 540.402344 C 167.488281 531.058594 211.78125 485.015625 301.835938 487.042969 C 216.660156 456.699219 162.058594 489.113281 114.726562 542.890625 Z M 131.761719 323.78125 C 80.703125 327.785156 59.246094 398.964844 93.5 437.269531 C 106.4375 451.773438 125.179688 461.121094 141.796875 451.683594 C 163.347656 439.480469 156.210938 401.773438 130.472656 417.84375 C 136.367188 399.609375 171.265625 395.191406 173.335938 426.496094 C 174.765625 448.046875 153.722656 467.613281 128.125 471.066406 C 72.597656 478.476562 44.652344 408.816406 65.324219 363.605469 C 77.523438 336.992188 103.308594 316.550781 131.761719 323.78125 Z M 430.660156 53.058594 C 453.910156 31.878906 497.882812 51.214844 496.960938 87.40625 C 495.855469 129.625 440.054688 150.757812 405.707031 161.347656 C 373.890625 171.152344 347.003906 178.472656 327.023438 211.808594 C 313.992188 233.539062 312.058594 259.230469 330.105469 283.035156 C 316.710938 277.785156 287.609375 247.765625 311.324219 206.144531 C 329.046875 182.386719 356.625 170.324219 383.792969 160.886719 C 407.777344 152.507812 441.160156 141.640625 455.015625 130.730469 C 470.257812 118.710938 483.746094 97.394531 483.5625 79.484375 C 483.285156 53.195312 455.292969 44.125 430.660156 53.105469 Z M 430.660156 53.058594 " fill-opacity="1" fill-rule="evenodd"/></g><g fill="#ffffff" fill-opacity="1"><g transform="translate(708.603442, 369.346531)"><g><path d="M 190.105469 44.660156 C 210.214844 44.660156 227.753906 32.96875 227.753906 15.902344 C 227.753906 -0.46875 220.269531 -4.207031 220.269531 1.871094 C 220.269531 10.988281 205.539062 14.730469 193.613281 14.730469 C 165.320312 14.730469 133.519531 -6.3125 102.417969 -24.785156 C 117.617188 -48.402344 125.800781 -79.96875 132.816406 -109.433594 C 177.945312 -115.746094 205.304688 -149.183594 205.304688 -176.777344 C 205.304688 -195.484375 191.976562 -210.449219 170.929688 -210.449219 C 133.75 -210.449219 116.683594 -169.0625 101.25 -124.867188 C 68.277344 -133.050781 41.15625 -165.785156 41.15625 -201.796875 C 41.15625 -204.835938 39.984375 -206.238281 38.347656 -206.238281 C 33.90625 -206.238281 25.253906 -195.71875 25.253906 -180.050781 C 25.253906 -142.871094 61.964844 -118.085938 96.574219 -110.601562 C 87.921875 -85.582031 79.503906 -60.796875 67.8125 -43.257812 C 55.652344 -48.402344 43.960938 -51.910156 32.738281 -51.910156 C 14.265625 -51.910156 0 -38.347656 0 -19.875 C 0 0 17.769531 13.796875 36.242188 13.796875 C 60.796875 13.796875 78.800781 4.207031 92.128906 -10.988281 C 122.292969 13.09375 151.757812 44.660156 190.105469 44.660156 Z M 17.769531 -27.59375 C 17.769531 -33.203125 24.320312 -38.347656 32.738281 -38.347656 C 41.855469 -38.347656 50.742188 -36.242188 59.160156 -32.503906 C 50.742188 -23.617188 40.6875 -18.472656 28.292969 -18.472656 C 22.449219 -18.472656 17.769531 -21.511719 17.769531 -27.59375 Z M 136.558594 -125.101562 C 145.445312 -162.980469 153.628906 -193.613281 173.738281 -193.613281 C 182.855469 -193.613281 188.703125 -186.363281 188.703125 -177.480469 C 188.703125 -154.328125 166.957031 -132.113281 136.558594 -125.101562 Z M 136.558594 -125.101562 "/></g></g></g><g fill="#ffffff" fill-opacity="1"><g transform="translate(875.551634, 369.346531)"><g><path d="M 46.53125 -151.757812 C 62.902344 -160.644531 74.59375 -185.429688 74.59375 -201.796875 C 74.59375 -209.980469 69.449219 -214.890625 62.667969 -214.890625 C 52.378906 -214.890625 43.492188 -206.472656 43.492188 -197.589844 C 43.492188 -191.976562 47.9375 -187.066406 54.714844 -187.066406 L 56.820312 -187.066406 C 52.847656 -176.074219 43.960938 -165.085938 36.011719 -159.941406 C 27.824219 -154.5625 36.476562 -146.378906 46.53125 -151.757812 Z M 46.53125 -151.757812 "/></g></g></g><g fill="#ffffff" fill-opacity="1"><g transform="translate(957.155185, 369.346531)"><g><path d="M 39.050781 0 C 60.5625 -0.234375 83.011719 -34.839844 96.339844 -74.828125 C 100.546875 -87.453125 90.023438 -92.597656 84.882812 -80.671875 C 69.449219 -44.660156 57.757812 -27.824219 46.765625 -27.824219 C 40.453125 -27.824219 35.074219 -35.074219 35.074219 -54.25 C 35.308594 -67.34375 38.582031 -83.246094 43.960938 -95.636719 C 49.339844 -108.03125 19.875 -106.628906 11.691406 -88.15625 C 4.910156 -72.957031 3.976562 -56.585938 4.207031 -42.558594 C 4.675781 -17.769531 16.367188 0.234375 39.050781 0 Z M 25.253906 -130.011719 C 25.253906 -123.230469 31.101562 -118.554688 38.113281 -118.554688 C 51.441406 -118.554688 63.601562 -126.269531 63.601562 -138.429688 C 63.601562 -145.445312 58.222656 -151.289062 49.804688 -151.523438 C 37.179688 -151.992188 25.253906 -142.167969 25.253906 -130.011719 Z M 25.253906 -130.011719 "/></g></g></g><g fill="#ffffff" fill-opacity="1"><g transform="translate(1033.380843, 369.346531)"><g><path d="M 85.816406 0 C 115.511719 0 138.195312 -58.222656 142.871094 -75.761719 C 146.378906 -88.855469 135.15625 -92.128906 131.179688 -80.4375 C 126.035156 -65.238281 109.433594 -27.824219 97.742188 -27.824219 C 94 -27.824219 92.832031 -30.632812 92.832031 -35.542969 C 92.832031 -50.507812 101.25 -71.085938 101.25 -89.089844 C 101.25 -99.847656 94.234375 -108.730469 84.179688 -108.730469 C 65.941406 -108.730469 49.574219 -92.128906 34.140625 -61.496094 C 35.777344 -75.761719 41.621094 -86.285156 43.492188 -97.976562 C 44.894531 -106.394531 19.640625 -108.265625 10.988281 -88.15625 C 3.742188 -71.085938 3.273438 -57.054688 3.273438 -38.347656 C 3.273438 -10.523438 18.003906 -0.703125 27.59375 -0.933594 C 31.566406 -0.933594 34.605469 -2.804688 34.605469 -6.3125 C 34.605469 -30.632812 54.949219 -83.246094 66.640625 -83.246094 C 73.65625 -83.246094 62.199219 -54.25 62.199219 -32.269531 C 62.199219 -16.835938 69.914062 0 85.816406 0 Z M 85.816406 0 "/></g></g></g><g fill="#ffffff" fill-opacity="1"><g transform="translate(1155.903067, 369.346531)"><g><path d="M 40.921875 0 C 73.1875 0 95.871094 -39.75 107.09375 -74.828125 C 110.601562 -85.816406 100.546875 -93.765625 95.636719 -80.4375 C 86.75 -56.121094 68.511719 -27.824219 49.574219 -27.824219 C 35.777344 -27.824219 32.269531 -41.386719 32.269531 -55.183594 C 32.269531 -69.914062 40.6875 -94.9375 56.820312 -94.9375 C 61.265625 -94.9375 64.070312 -88.855469 64.070312 -83.246094 C 64.070312 -70.148438 76.695312 -78.101562 76.695312 -89.324219 C 76.695312 -100.082031 68.746094 -109.902344 53.078125 -109.902344 C 22.914062 -109.902344 -0.234375 -77.164062 0 -49.339844 C -0.234375 -16.367188 21.277344 0 40.921875 0 Z M 40.921875 0 "/></g></g></g><g fill="#ffffff" fill-opacity="1"><g transform="translate(1242.650724, 369.346531)"><g><path d="M 36.242188 0 C 59.859375 0 72.957031 -25.019531 76.929688 -45.832031 C 96.105469 -46.765625 110.136719 -62.199219 112.472656 -74.828125 C 114.8125 -87.21875 106.859375 -93.53125 101.015625 -80.671875 C 94.234375 -65.472656 83.710938 -61.964844 78.332031 -61.964844 C 78.332031 -78.800781 73.1875 -92.597656 60.328125 -92.597656 C 53.3125 -92.597656 47.46875 -85.816406 47.46875 -74.828125 C 47.46875 -65.472656 51.675781 -56.121094 60.09375 -50.507812 C 57.289062 -38.816406 49.804688 -27.824219 41.386719 -27.824219 C 34.605469 -27.824219 29.460938 -35.074219 29.460938 -50.742188 C 29.460938 -66.410156 36.710938 -86.285156 57.523438 -97.273438 C 65.472656 -101.484375 61.03125 -109.667969 52.847656 -109.667969 C 23.851562 -109.667969 -2.339844 -77.867188 -2.339844 -42.089844 C -2.339844 -16.835938 14.964844 0 36.242188 0 Z M 36.242188 0 "/></g></g></g><g fill="#ffffff" fill-opacity="1"><g transform="translate(1334.54239, 369.346531)"><g><path d="M 85.816406 0 C 115.511719 0 138.195312 -58.222656 142.871094 -75.761719 C 146.378906 -88.855469 135.15625 -92.128906 131.179688 -80.4375 C 126.035156 -65.238281 109.433594 -27.824219 97.742188 -27.824219 C 94 -27.824219 92.832031 -30.632812 92.832031 -35.542969 C 92.832031 -50.507812 101.25 -71.085938 101.25 -89.089844 C 101.25 -99.847656 94.234375 -108.730469 84.179688 -108.730469 C 65.941406 -108.730469 49.574219 -92.128906 34.140625 -61.496094 C 35.777344 -75.761719 41.621094 -86.285156 43.492188 -97.976562 C 44.894531 -106.394531 19.640625 -108.265625 10.988281 -88.15625 C 3.742188 -71.085938 3.273438 -57.054688 3.273438 -38.347656 C 3.273438 -10.523438 18.003906 -0.703125 27.59375 -0.933594 C 31.566406 -0.933594 34.605469 -2.804688 34.605469 -6.3125 C 34.605469 -30.632812 54.949219 -83.246094 66.640625 -83.246094 C 73.65625 -83.246094 62.199219 -54.25 62.199219 -32.269531 C 62.199219 -16.835938 69.914062 0 85.816406 0 Z M 85.816406 0 "/></g></g></g><g fill="#ffffff" fill-opacity="1"><g transform="translate(1457.064614, 369.346531)"><g><path d="M 39.984375 0 C 65.238281 0 76.464844 -35.542969 89.558594 -74.828125 C 93.765625 -87.453125 82.777344 -92.832031 78.101562 -80.671875 C 63.601562 -43.257812 54.714844 -27.824219 45.832031 -27.824219 C 41.386719 -27.824219 36.242188 -33.203125 36.242188 -54.484375 C 36.242188 -72.722656 37.179688 -92.597656 45.597656 -120.191406 C 54.714844 -120.421875 63.132812 -120.421875 69.914062 -120.421875 C 82.777344 -120.421875 84.648438 -132.582031 75.058594 -132.582031 L 49.804688 -132.582031 C 52.144531 -139.128906 54.949219 -146.378906 58.222656 -153.863281 C 64.070312 -167.191406 36.242188 -163.683594 28.058594 -147.082031 C 25.722656 -142.402344 23.617188 -137.492188 21.746094 -132.582031 L -3.507812 -132.582031 C -8.417969 -132.582031 -9.820312 -130.011719 -9.820312 -127.4375 C -9.820312 -123.929688 -5.144531 -119.722656 3.507812 -119.722656 L 17.070312 -119.722656 C 8.886719 -94.234375 5.613281 -68.746094 5.613281 -52.847656 C 5.613281 -19.40625 19.875 0 39.984375 0 Z M 39.984375 0 "/></g></g></g><g fill="#ffffff" fill-opacity="1"><g transform="translate(1526.509458, 369.346531)"><g><path d="M 44.660156 0 C 69.214844 0 91.195312 -35.777344 104.289062 -74.828125 C 108.5 -87.453125 97.976562 -92.597656 92.832031 -80.671875 C 78.800781 -47.9375 64.539062 -27.824219 54.949219 -27.824219 C 51.210938 -27.824219 50.039062 -31.332031 50.039062 -35.777344 C 50.039062 -48.871094 62.433594 -60.5625 62.433594 -69.214844 C 62.433594 -88.386719 36.476562 -83.246094 23.851562 -93.300781 C 23.851562 -109.902344 18.238281 -118.085938 8.886719 -118.085938 C 3.976562 -118.085938 -2.804688 -112.707031 -2.804688 -102.183594 C -2.804688 -80.203125 28.527344 -79.269531 28.527344 -68.277344 C 28.527344 -63.367188 19.40625 -48.167969 19.40625 -32.269531 C 19.40625 -15.667969 29.460938 0 44.660156 0 Z M 44.660156 0 "/></g></g></g><g fill="#ffffff" fill-opacity="1"><g transform="translate(1610.685062, 369.346531)"><g><path d="M 36.242188 0 C 59.859375 0 72.957031 -25.019531 76.929688 -45.832031 C 96.105469 -46.765625 110.136719 -62.199219 112.472656 -74.828125 C 114.8125 -87.21875 106.859375 -93.53125 101.015625 -80.671875 C 94.234375 -65.472656 83.710938 -61.964844 78.332031 -61.964844 C 78.332031 -78.800781 73.1875 -92.597656 60.328125 -92.597656 C 53.3125 -92.597656 47.46875 -85.816406 47.46875 -74.828125 C 47.46875 -65.472656 51.675781 -56.121094 60.09375 -50.507812 C 57.289062 -38.816406 49.804688 -27.824219 41.386719 -27.824219 C 34.605469 -27.824219 29.460938 -35.074219 29.460938 -50.742188 C 29.460938 -66.410156 36.710938 -86.285156 57.523438 -97.273438 C 65.472656 -101.484375 61.03125 -109.667969 52.847656 -109.667969 C 23.851562 -109.667969 -2.339844 -77.867188 -2.339844 -42.089844 C -2.339844 -16.835938 14.964844 0 36.242188 0 Z M 36.242188 0 "/></g></g></g></svg>